# xmcd
#
# Track frame offsets:
# 150
# 19899
# 40311
# 55272
# 76867
# 94301
# 119879
# 143236
# 160818
# 174945
# 193399
# 215380
#
# Disc length: 3167 seconds
#
#
# Revision: 0
# Processed by: cddbd v1.5.2PL0 Copyright (c) Steve Scherf et al.
# Submitted via: FreeRIP 2.945 
#
DISCID=ab0c5d0c
DTITLE=Lusanda Spirtual Group - NGIFUN' IZULU
DYEAR=2002
DGENRE=Gospel
TTITLE0=NGIFUN' IZULU
TTITLE1=UKUTHANDA KWAM KUPHELILE
TTITLE2=NKOSI YAM UBUNDITHANDA
TTITLE3=NAL' ILIFA
TTITLE4=OLOKHOL' OLUKHULU
TTITLE5=IZIZWE ZINXANEL' UTHIXO
TTITLE6=KWELOZWE LOKUKHANYA
TTITLE7=NDINGANGAKHE NDISITHELE
TTITLE8=IZULU LIYASETYENZELWA
TTITLE9=UYINDLELA YENYANISO
TTITLE10=BAYETE NGONYAMA
TTITLE11=YENZA NGENTANDO YAKHO
EXTD=
EXTT0=
EXTT1=
EXTT2=
EXTT3=
EXTT4=
EXTT5=
EXTT6=
EXTT7=
EXTT8=
EXTT9=
EXTT10=
EXTT11=
PLAYORDER=
